<?xml version="1.0" encoding="UTF-8"?>
<svg xmlns="http://www.w3.org/2000/svg" xmlns:xlink="http://www.w3.org/1999/xlink" width="100pt" height="100pt" viewBox="0 0 100 100" version="1.1">
<g id="surface1">
<path style=" stroke:none;fill-rule:nonzero;fill:rgb(0%,0%,0%);fill-opacity:1;" d="M 96.875 66.664062 C 95.148438 66.664062 93.75 65.265625 93.75 63.539062 L 93.75 11.460938 C 93.75 8.585938 91.414062 6.25 88.539062 6.25 L 11.460938 6.25 C 8.585938 6.25 6.25 8.585938 6.25 11.460938 L 6.25 63.539062 C 6.25 65.265625 4.851562 66.664062 3.125 66.664062 C 1.398438 66.664062 0 65.265625 0 63.539062 L 0 11.460938 C 0 5.136719 5.136719 0 11.460938 0 L 88.539062 0 C 94.863281 0 100 5.136719 100 11.460938 L 100 63.539062 C 100 65.265625 98.601562 66.664062 96.875 66.664062 Z M 96.875 66.664062 "/>
<path style=" stroke:none;fill-rule:nonzero;fill:rgb(0%,0%,0%);fill-opacity:1;" d="M 34.375 66.664062 C 33.257812 66.664062 32.203125 66.066406 31.640625 65.058594 L 27.085938 56.851562 L 27.085938 63.539062 C 27.085938 65.265625 25.683594 66.664062 23.960938 66.664062 C 22.234375 66.664062 20.835938 65.265625 20.835938 63.539062 L 20.835938 44.789062 C 20.835938 43.367188 21.796875 42.121094 23.175781 41.765625 C 24.550781 41.398438 26 42.023438 26.691406 43.273438 L 31.25 51.476562 L 31.25 44.789062 C 31.25 43.066406 32.648438 41.664062 34.375 41.664062 C 36.101562 41.664062 37.5 43.066406 37.5 44.789062 L 37.5 63.539062 C 37.5 64.96875 36.539062 66.210938 35.15625 66.566406 C 34.898438 66.632812 34.632812 66.664062 34.375 66.664062 Z M 34.375 66.664062 "/>
<path style=" stroke:none;fill-rule:nonzero;fill:rgb(0%,0%,0%);fill-opacity:1;" d="M 51.039062 66.664062 L 48.960938 66.664062 C 44.9375 66.664062 41.664062 63.398438 41.664062 59.375 L 41.664062 48.960938 C 41.664062 44.9375 44.9375 41.664062 48.960938 41.664062 L 51.039062 41.664062 C 55.0625 41.664062 58.335938 44.9375 58.335938 48.960938 L 58.335938 59.375 C 58.335938 63.398438 55.0625 66.664062 51.039062 66.664062 Z M 48.960938 47.914062 C 48.382812 47.914062 47.914062 48.382812 47.914062 48.960938 L 47.914062 59.375 C 47.914062 59.949219 48.382812 60.414062 48.960938 60.414062 L 51.039062 60.414062 C 51.617188 60.414062 52.085938 59.949219 52.085938 59.375 L 52.085938 48.960938 C 52.085938 48.382812 51.617188 47.914062 51.039062 47.914062 Z M 48.960938 47.914062 "/>
<path style=" stroke:none;fill-rule:nonzero;fill:rgb(0%,0%,0%);fill-opacity:1;" d="M 70.835938 66.664062 C 69.109375 66.664062 67.710938 65.265625 67.710938 63.539062 L 67.710938 44.789062 C 67.710938 43.066406 69.109375 41.664062 70.835938 41.664062 C 72.558594 41.664062 73.960938 43.066406 73.960938 44.789062 L 73.960938 63.539062 C 73.960938 65.265625 72.558594 66.664062 70.835938 66.664062 Z M 70.835938 66.664062 "/>
<path style=" stroke:none;fill-rule:nonzero;fill:rgb(0%,0%,0%);fill-opacity:1;" d="M 76.039062 47.914062 L 65.625 47.914062 C 63.898438 47.914062 62.5 46.515625 62.5 44.789062 C 62.5 43.066406 63.898438 41.664062 65.625 41.664062 L 76.039062 41.664062 C 77.765625 41.664062 79.164062 43.066406 79.164062 44.789062 C 79.164062 46.515625 77.765625 47.914062 76.039062 47.914062 Z M 76.039062 47.914062 "/>
<path style=" stroke:none;fill-rule:nonzero;fill:rgb(0%,0%,0%);fill-opacity:1;" d="M 92.710938 100 L 86.460938 100 C 84.734375 100 83.335938 98.601562 83.335938 96.875 L 83.335938 78.125 C 83.335938 76.398438 84.734375 75 86.460938 75 L 92.710938 75 C 96.726562 75 100 78.273438 100 82.289062 L 100 92.710938 C 100 96.726562 96.726562 100 92.710938 100 Z M 89.585938 93.75 L 92.710938 93.75 C 93.28125 93.75 93.75 93.28125 93.75 92.710938 L 93.75 82.289062 C 93.75 81.71875 93.28125 81.25 92.710938 81.25 L 89.585938 81.25 Z M 89.585938 93.75 "/>
<path style=" stroke:none;fill-rule:nonzero;fill:rgb(0%,0%,0%);fill-opacity:1;" d="M 3.125 100 C 1.398438 100 0 98.601562 0 96.875 L 0 82.289062 C 0 78.273438 3.273438 75 7.289062 75 L 13.539062 75 C 15.265625 75 16.664062 76.398438 16.664062 78.125 C 16.664062 79.851562 15.265625 81.25 13.539062 81.25 L 7.289062 81.25 C 6.71875 81.25 6.25 81.71875 6.25 82.289062 L 6.25 96.875 C 6.25 98.601562 4.851562 100 3.125 100 Z M 3.125 100 "/>
<path style=" stroke:none;fill-rule:nonzero;fill:rgb(0%,0%,0%);fill-opacity:1;" d="M 13.539062 91.664062 L 3.125 91.664062 C 1.398438 91.664062 0 90.265625 0 88.539062 C 0 86.816406 1.398438 85.414062 3.125 85.414062 L 13.539062 85.414062 C 15.265625 85.414062 16.664062 86.816406 16.664062 88.539062 C 16.664062 90.265625 15.265625 91.664062 13.539062 91.664062 Z M 13.539062 91.664062 "/>
<path style=" stroke:none;fill-rule:nonzero;fill:rgb(0%,0%,0%);fill-opacity:1;" d="M 76.039062 100 C 74.925781 100 73.871094 99.398438 73.308594 98.390625 L 68.75 90.183594 L 68.75 96.871094 C 68.75 98.59375 67.351562 99.996094 65.625 99.996094 C 63.898438 99.996094 62.5 98.601562 62.5 96.875 L 62.5 78.125 C 62.5 76.699219 63.460938 75.453125 64.84375 75.101562 C 66.21875 74.738281 67.664062 75.359375 68.359375 76.601562 L 72.914062 84.8125 L 72.914062 78.125 C 72.914062 76.398438 74.316406 75 76.039062 75 C 77.765625 75 79.164062 76.398438 79.164062 78.125 L 79.164062 96.875 C 79.164062 98.300781 78.203125 99.546875 76.824219 99.898438 C 76.5625 99.96875 76.300781 100 76.039062 100 Z M 76.039062 100 "/>
<path style=" stroke:none;fill-rule:nonzero;fill:rgb(0%,0%,0%);fill-opacity:1;" d="M 30.210938 100 L 28.125 100 C 24.101562 100 20.835938 96.726562 20.835938 92.710938 L 20.835938 82.289062 C 20.835938 78.273438 24.101562 75 28.125 75 L 30.210938 75 C 34.226562 75 37.5 78.273438 37.5 82.289062 L 37.5 92.710938 C 37.5 96.726562 34.226562 100 30.210938 100 Z M 28.125 81.25 C 27.550781 81.25 27.085938 81.71875 27.085938 82.289062 L 27.085938 92.710938 C 27.085938 93.28125 27.550781 93.75 28.125 93.75 L 30.210938 93.75 C 30.78125 93.75 31.25 93.28125 31.25 92.710938 L 31.25 82.289062 C 31.25 81.71875 30.78125 81.25 30.210938 81.25 Z M 28.125 81.25 "/>
<path style=" stroke:none;fill-rule:nonzero;fill:rgb(0%,0%,0%);fill-opacity:1;" d="M 51.039062 100 L 48.960938 100 C 44.9375 100 41.664062 96.726562 41.664062 92.710938 L 41.664062 78.125 C 41.664062 76.398438 43.066406 75 44.789062 75 C 46.515625 75 47.914062 76.398438 47.914062 78.125 L 47.914062 92.710938 C 47.914062 93.28125 48.382812 93.75 48.960938 93.75 L 51.039062 93.75 C 51.617188 93.75 52.085938 93.28125 52.085938 92.710938 L 52.085938 78.125 C 52.085938 76.398438 53.484375 75 55.210938 75 C 56.933594 75 58.335938 76.398438 58.335938 78.125 L 58.335938 92.710938 C 58.335938 96.726562 55.0625 100 51.039062 100 Z M 51.039062 100 "/>
<path style=" stroke:none;fill-rule:nonzero;fill:rgb(0%,0%,0%);fill-opacity:1;" d="M 96.875 20.835938 L 3.125 20.835938 C 1.398438 20.835938 0 19.433594 0 17.710938 C 0 15.984375 1.398438 14.585938 3.125 14.585938 L 96.875 14.585938 C 98.601562 14.585938 100 15.984375 100 17.710938 C 100 19.433594 98.601562 20.835938 96.875 20.835938 Z M 96.875 20.835938 "/>
</g>
</svg>
